<mxfile host="app.diagrams.net" modified="2025-08-14T00:00:00.000Z" agent="Student" version="20.8.0">
  <diagram id="bdd" name="Block Definition Diagram">
    <mxGraphModel dx="1024" dy="768" grid="1" gridSize="10" guides="1" tooltips="1" connect="1" arrows="1" fold="1" page="1" pageScale="1" pageWidth="1100" pageHeight="850" math="0" shadow="0">
      <root>
        <mxCell id="0"/>
        <mxCell id="1" parent="0"/>

        <mxCell id="blk_user" value="«block»\nUser\n- name: String\n- email: String\n- password: String" style="swimlane;childLayout=stackLayout;rounded=1;horizontal=1;startSize=24;fillColor=#f1f3f4;strokeColor=#5f6368" vertex="1" parent="1">
          <mxGeometry x="70" y="70" width="200" height="140" as="geometry"/>
        </mxCell>

        <mxCell id="blk_app" value="«block»\nApplication\n- fullName: String\n- passportNumber: String\n- visaType: String\n- status: Status" style="swimlane;childLayout=stackLayout;rounded=1;horizontal=1;startSize=24;fillColor=#f1f3f4;strokeColor=#5f6368" vertex="1" parent="1">
          <mxGeometry x="370" y="60" width="220" height="170" as="geometry"/>
        </mxCell>

        <mxCell id="blk_doc" value="«block»\nDocument\n- name: String\n- url: String\n- verified: Boolean" style="swimlane;childLayout=stackLayout;rounded=1;horizontal=1;startSize=24;fillColor=#f1f3f4;strokeColor=#5f6368" vertex="1" parent="1">
          <mxGeometry x="370" y="270" width="220" height="140" as="geometry"/>
        </mxCell>

        <mxCell id="blk_pay" value="«block»\nPayment\n- amount: Number\n- currency: String\n- status: PaymentStatus" style="swimlane;childLayout=stackLayout;rounded=1;horizontal=1;startSize=24;fillColor=#f1f3f4;strokeColor=#5f6368" vertex="1" parent="1">
          <mxGeometry x="640" y="270" width="220" height="140" as="geometry"/>
        </mxCell>

        <mxCell id="assoc1" value="1..* applications" style="endArrow=block;endFill=1;html=1;strokeColor=#1a73e8;dashed=1" edge="1" parent="1" source="blk_user" target="blk_app">
          <mxGeometry relative="1" as="geometry"/>
        </mxCell>
        <mxCell id="assoc2" value="1..* documents" style="endArrow=block;endFill=1;html=1;strokeColor=#1a73e8;dashed=1" edge="1" parent="1" source="blk_app" target="blk_doc">
          <mxGeometry relative="1" as="geometry"/>
        </mxCell>
        <mxCell id="assoc3" value="0..* payments" style="endArrow=block;endFill=1;html=1;strokeColor=#1a73e8;dashed=1" edge="1" parent="1" source="blk_app" target="blk_pay">
          <mxGeometry relative="1" as="geometry"/>
        </mxCell>
      </root>
    </mxGraphModel>
  </diagram>
</mxfile>


